<svg width="27" height="31" viewBox="0 0 27 31" fill="none" xmlns="http://www.w3.org/2000/svg">
<g filter="url(#filter0_d_67_4242)">
<g clip-path="url(#clip0_67_4242)">
<path d="M13.7218 0C14.0481 0.076412 14.3862 0.129313 14.7065 0.235114C16.5512 0.864043 17.7198 2.39816 17.8443 4.33197C17.8443 4.36724 17.8562 4.4025 17.8621 4.47304C17.9452 4.47304 18.0282 4.47304 18.1053 4.47304C18.8883 4.47304 19.6772 4.47304 20.4602 4.47304C20.9466 4.47304 21.1839 4.68464 21.2313 5.16075C21.3915 6.9241 21.5457 8.69333 21.6999 10.4567C21.8898 12.5551 22.0796 14.6593 22.2694 16.7577C22.3643 17.7864 22.4889 18.815 22.5363 19.8436C22.5838 20.9016 22.0796 21.7128 21.2313 22.3182C20.5611 22.7943 19.7959 22.9882 18.9714 22.9882C16.0055 22.9824 13.0337 22.9882 10.0679 22.9882C9.13662 22.9882 8.21128 23.0176 7.28 22.9765C6.10553 22.9295 5.13867 22.4475 4.45652 21.4718C3.98792 20.8017 3.94046 20.0493 4.02351 19.2617C4.19553 17.6335 4.32602 15.9995 4.46838 14.3654C4.61075 12.7608 4.75904 11.162 4.9014 9.55737C5.03189 8.13494 5.15646 6.7125 5.28103 5.29006C5.28696 5.2254 5.28696 5.15487 5.29882 5.09021C5.35814 4.67876 5.58947 4.47304 6.01656 4.46716C6.8114 4.46128 7.60032 4.46716 8.39516 4.46716C8.48414 4.46716 8.57311 4.46716 8.66802 4.46716C8.70361 3.7677 8.84004 3.12113 9.15442 2.52159C9.90181 1.12855 11.0585 0.305648 12.6245 0.0470227C12.6897 0.0352671 12.755 0.0176335 12.8202 0C13.1168 0 13.4193 0 13.7218 0ZM8.68581 5.76029C7.95622 5.76029 7.25628 5.76029 6.54448 5.76029C6.53854 5.80731 6.52668 5.84258 6.52668 5.88372C6.34873 7.89394 6.16485 9.91004 5.9869 11.9203C5.75556 14.5418 5.52422 17.1692 5.28696 19.7907C5.24544 20.2727 5.40559 20.6724 5.7259 21.0192C6.22416 21.5482 6.86479 21.7304 7.57066 21.7304C11.3669 21.7363 15.1691 21.7363 18.9654 21.7304C19.3925 21.7304 19.8018 21.6599 20.1933 21.4718C20.8161 21.172 21.3618 20.5313 21.2551 19.7084C21.1898 19.2147 21.1602 18.7092 21.1186 18.2096C20.9644 16.4462 20.8043 14.677 20.65 12.9136C20.4721 10.9269 20.2941 8.93432 20.1162 6.94761C20.0806 6.55379 20.0391 6.15998 20.0035 5.77204C19.2798 5.77204 18.5739 5.77204 17.8562 5.77204C17.8562 5.85433 17.8562 5.92487 17.8562 5.98952C17.8562 6.55967 17.8621 7.12982 17.8503 7.6941C17.8443 8.05264 17.5596 8.31715 17.2097 8.31127C16.8715 8.30539 16.5987 8.04677 16.5809 7.69997C16.575 7.58242 16.5809 7.45898 16.5809 7.34143C16.5809 6.8183 16.5809 6.29517 16.5809 5.77204C14.3624 5.77204 12.1736 5.77204 9.96706 5.77204C9.96706 5.83082 9.96706 5.87784 9.96706 5.91899C9.96706 6.50089 9.97299 7.08868 9.96706 7.67059C9.96113 8.04677 9.68234 8.31715 9.32644 8.31127C8.97647 8.31127 8.70954 8.04089 8.69768 7.68234C8.69175 7.57066 8.69768 7.45898 8.69768 7.3473C8.68581 6.8183 8.68581 6.29517 8.68581 5.76029ZM16.575 4.46128C16.4919 3.23281 15.9521 2.29236 14.8844 1.6987C13.7277 1.05801 12.5592 1.10503 11.45 1.82213C10.5068 2.43343 10.0264 3.33274 9.96706 4.46128C12.1796 4.46128 14.3684 4.46128 16.575 4.46128Z" fill="white"/>
</g>
<rect x="4.5" y="0.5" width="17.5484" height="22" stroke="black" shape-rendering="crispEdges"/>
</g>
<defs>
<filter id="filter0_d_67_4242" x="0" y="0" width="26.5483" height="31" filterUnits="userSpaceOnUse" color-interpolation-filters="sRGB">
<feFlood flood-opacity="0" result="BackgroundImageFix"/>
<feColorMatrix in="SourceAlpha" type="matrix" values="0 0 0 0 0 0 0 0 0 0 0 0 0 0 0 0 0 0 127 0" result="hardAlpha"/>
<feOffset dy="4"/>
<feGaussianBlur stdDeviation="2"/>
<feComposite in2="hardAlpha" operator="out"/>
<feColorMatrix type="matrix" values="0 0 0 0 0 0 0 0 0 0 0 0 0 0 0 0 0 0 0.25 0"/>
<feBlend mode="normal" in2="BackgroundImageFix" result="effect1_dropShadow_67_4242"/>
<feBlend mode="normal" in="SourceGraphic" in2="effect1_dropShadow_67_4242" result="shape"/>
</filter>
<clipPath id="clip0_67_4242">
<rect x="4" width="18.5484" height="23" fill="white"/>
</clipPath>
</defs>
</svg>
